<?xml version="1.0" standalone="no"?><!DOCTYPE svg PUBLIC "-//W3C//DTD SVG 1.1//EN" "http://www.w3.org/Graphics/SVG/1.1/DTD/svg11.dtd"><svg t="1595836825431" class="icon" viewBox="0 0 1024 1024" version="1.1" xmlns="http://www.w3.org/2000/svg" p-id="3072" xmlns:xlink="http://www.w3.org/1999/xlink" width="200" height="200"><defs><style type="text/css"></style></defs><path d="M974.9 125.7H49.5c-27.1 0-49.1 22-49.1 49.1v547.8c0 27.1 22 49.1 49.1 49.1h353.7v67.1H257.4c-14.1 0-25.6 11.5-25.6 25.6v8c0 14.1 11.5 25.6 25.6 25.6h504.8c6.9 0 13.4-2.7 18.2-7.6 4.8-4.9 7.4-11.3 7.3-18v-8c0-14.1-11.5-25.6-25.6-25.6H616.7v-67.1h358.2c27.1 0 49.1-22 49.1-49.1V174.8c0-27.1-22-49.1-49.1-49.1zM462.4 838.9v-67.1h95.2v67.1h-95.2z m504.4-656.1v531.8H57.5V182.8h909.3z" p-id="3073"></path><path d="M218.3 608.6c15.1 0 28.3-13.2 28.3-28.3 0-74.3 27.6-144.1 77.8-196.5 50.1-52.2 116.6-80.9 187.3-80.9 70.8 0 137.3 28.7 187.3 80.9 50.3 52.4 78 122.2 78 196.5 0 15.1 13.2 28.3 28.3 28.3s28.3-13.2 28.3-28.3c0-184.2-144.4-334-321.8-334S190 396.1 190 580.3c0 15.1 13.2 28.3 28.3 28.3z" p-id="3074"></path><path d="M516.2 363.5l-4.4-38.2-4.4 38.2c-99.6 2.4-179.9 85-179.9 186.3 0 14.3 12.1 23.2 23.2 23.2 13.9 0 23.2-9.3 23.2-23.2 0-37.6 14.4-72.8 40.4-99.2 23.6-23.9 54.4-38 87.5-40.3l-15.3 131.1v32.1c-12.1 7.4-20.4 22.3-20.4 37.4 0 25.1 20.4 45.5 45.5 45.5s45.5-20.4 45.5-45.5c0-15.1-8.3-30.1-20.4-37.4v-30.1l-15.3-133.2c33.1 2.3 63.9 16.4 87.5 40.3 26.1 26.4 40.4 61.6 40.4 99.2 0 13.9 9.3 23.2 23.2 23.2 13.9 0 23.2-9.3 23.2-23.2 0.4-101.1-79.9-183.8-179.5-186.2z" p-id="3075"></path></svg>