<?xml version="1.0" standalone="no"?><!DOCTYPE svg PUBLIC "-//W3C//DTD SVG 1.1//EN" "http://www.w3.org/Graphics/SVG/1.1/DTD/svg11.dtd"><svg t="1595837848605" class="icon" viewBox="0 0 1024 1024" version="1.1" xmlns="http://www.w3.org/2000/svg" p-id="6387" xmlns:xlink="http://www.w3.org/1999/xlink" width="200" height="200"><defs><style type="text/css"></style></defs><path d="M723.069673 348.652942H307.672997a34.165328 34.165328 0 1 1 0-68.280659H723.069673a34.165328 34.165328 0 1 1 0 68.280659z m0 211.261664H307.672997a34.115331 34.115331 0 1 1 0-68.230662H723.069673a34.115331 34.115331 0 1 1 0 68.230662zM532.681988 771.226267H324.958151a34.115331 34.115331 0 1 1 0-68.229662h207.723837a34.115331 34.115331 0 1 1 0 68.229662z m318.711407 252.705636H172.273621A106.742778 106.742778 0 0 1 61.842024 921.586911v-819.169922A106.742778 106.742778 0 0 1 172.273621 0.071996H851.393395a106.742778 106.742778 0 0 1 110.432597 102.344993v819.370912a106.742778 106.742778 0 0 1-110.432597 102.093005zM172.273621 68.301658a38.208131 38.208131 0 0 0-41.240982 34.115331v819.370912a38.208131 38.208131 0 0 0 41.240982 34.115331H851.393395a38.208131 38.208131 0 0 0 41.240982-34.115331v-819.369912a38.208131 38.208131 0 0 0-41.240982-34.116331H172.273621z" fill="#ffffff" p-id="6388"></path></svg>